<svg version="1.1" id="Laag_1" xmlns="http://www.w3.org/2000/svg" x="0" y="0" width="190" height="155" viewBox="0 0 190 155" xml:space="preserve"><path d="M75.3 63.9c-1.6 0-3-.4-4.2-1.2-1.2-.8-2.2-2-3-3.5-.7-1.5-1.1-3.4-1.1-5.6 0-2.2.4-4.1 1.1-5.7.7-1.5 1.7-2.7 3-3.5 1.3-.8 2.7-1.2 4.2-1.2 1.2 0 2.1.2 2.9.6.8.4 1.4.9 1.8 1.4.4.6.8 1.1 1 1.6h.2v-10H86v26.8h-4.7v-3.2H81c-.2.5-.6 1-1.1 1.6-.5.5-1.1 1-1.8 1.4s-1.7.5-2.8.5zm1.3-3.9c1 0 1.9-.3 2.6-.8.7-.5 1.2-1.3 1.6-2.3.4-1 .6-2.1.6-3.4 0-1.3-.2-2.4-.5-3.4-.4-1-.9-1.7-1.6-2.2-.7-.5-1.6-.8-2.6-.8-1.1 0-1.9.3-2.6.8-.7.5-1.2 1.3-1.6 2.3s-.5 2.1-.5 3.3c0 1.3.2 2.4.5 3.4.4 1 .9 1.8 1.6 2.3.6.5 1.5.8 2.5.8zm32.4-6.7c0-1.8-.2-3.3-.7-4.6s-1.2-2.3-2-3.2c-.9-.8-1.8-1.4-2.9-1.8-1.1-.4-2.3-.6-3.5-.6-1.9 0-3.6.4-5 1.3s-2.5 2.1-3.3 3.7c-.8 1.6-1.2 3.4-1.2 5.5s.4 3.9 1.2 5.5c.8 1.5 1.9 2.7 3.4 3.6 1.5.8 3.2 1.3 5.2 1.3 1.6 0 3-.2 4.2-.7 1.2-.5 2.2-1.1 3-2 .8-.9 1.3-1.9 1.6-3.1l-4.4-.5c-.2.6-.5 1-.9 1.4-.4.4-.9.7-1.5.9s-1.2.3-1.9.3c-1 0-1.9-.2-2.7-.7-.8-.4-1.4-1.1-1.8-1.9-.4-.8-.6-1.8-.6-2.9h14v-1.5h-.2zm-14-1.7c0-.8.2-1.5.6-2.2.4-.8 1-1.4 1.7-1.8.7-.4 1.6-.7 2.6-.7.9 0 1.7.2 2.4.6.7.4 1.2 1 1.6 1.7.4.7.6 1.5.6 2.4H95zm27.6 8c-.1 0-.3.1-.6.1-.2 0-.5.1-.8.1-.4 0-.8-.1-1.1-.2-.3-.1-.6-.4-.8-.7-.2-.3-.3-.8-.3-1.5V47.1h4v-3.7h-4v-4.8h-4.7v4.8h-2.9v3.7h2.9v11.2c0 1.3.3 2.3.8 3.1.6.8 1.3 1.5 2.3 1.9 1 .4 2 .6 3.2.5.7 0 1.2-.1 1.7-.2s.8-.2 1.1-.3l-.8-3.7zm9.6-7.8v11.8h-4.7V36.7h4.6v10.1h.2c.5-1.1 1.2-2 2.2-2.7 1-.7 2.3-1 3.8-1 1.4 0 2.6.3 3.7.9 1 .6 1.8 1.4 2.4 2.6.6 1.1.9 2.5.9 4.1v12.8h-4.7v-12c0-1.4-.3-2.4-1-3.2-.7-.8-1.7-1.1-2.9-1.1-.8 0-1.6.2-2.2.5-.7.4-1.2.9-1.5 1.6-.6.7-.8 1.5-.8 2.5zm26.6 12.1c-2 0-3.7-.4-5.1-1.3-1.4-.9-2.6-2.1-3.3-3.6-.8-1.6-1.2-3.4-1.2-5.4 0-2 .4-3.9 1.2-5.5.8-1.6 1.9-2.8 3.3-3.6 1.4-.9 3.1-1.3 5.1-1.3 2 0 3.7.4 5.1 1.3 1.4.9 2.6 2.1 3.3 3.6.8 1.6 1.2 3.4 1.2 5.5s-.4 3.9-1.2 5.4c-.8 1.6-1.9 2.8-3.3 3.6-1.4.8-3.1 1.3-5.1 1.3zm0-3.8c1.1 0 2-.3 2.7-.9.7-.6 1.3-1.4 1.6-2.4.4-1 .5-2.1.5-3.3 0-1.2-.2-2.3-.5-3.3-.4-1-.9-1.8-1.6-2.4-.7-.6-1.6-.9-2.7-.9s-2 .3-2.7.9c-.7.6-1.3 1.4-1.6 2.4-.4 1-.5 2.1-.5 3.3 0 1.2.2 2.3.5 3.3.4 1 .9 1.8 1.6 2.4.7.6 1.6.9 2.7.9zm18.4-8.3v11.8h-4.7V43.4h4.5v3.4h.2c.5-1.1 1.2-2 2.2-2.7 1-.7 2.3-1 3.8-1 1.4 0 2.6.3 3.6.9 1 .6 1.8 1.5 2.4 2.6.6 1.1.9 2.5.8 4.1v12.8h-4.7v-12c0-1.3-.3-2.4-1-3.2-.7-.8-1.7-1.1-2.9-1.1-.8 0-1.6.2-2.2.5-.6.4-1.1.9-1.5 1.6-.3.7-.5 1.5-.5 2.5zM74.4 86.1L67 155c30.8-3 33.6-29.9 7.4-68.9zm-9.6-14.4l-38.9 33.8c33.1 8.1 49.9-6.2 38.9-33.8zm-5.4-8.2l-52 5.4c26.1 12.6 50.7 10.4 52-5.4zm-4.9-7.4L.4 43.5c22.3 15.6 45.1 21 54.1 12.6zm-4.1-6.4L0 19.8c14.1 16.3 34.8 30.8 50.4 29.9zM43.3 41L7.3 0c5.9 12.8 18.4 32 36 41z" fill="#21386b"/></svg>